<svg width="25" height="24" viewBox="0 0 25 24" fill="none" xmlns="http://www.w3.org/2000/svg">
<path d="M24.5 12C24.5 18.3322 19.1469 23.5 12.5 23.5C5.85315 23.5 0.5 18.3322 0.5 12C0.5 5.66777 5.85315 0.5 12.5 0.5C19.1469 0.5 24.5 5.66777 24.5 12Z" fill="white" stroke="#E1E9EE"/>
<path d="M10.345 7.7251C10.1958 7.7251 10.0527 7.78436 9.94725 7.88985C9.84176 7.99534 9.7825 8.13841 9.7825 8.2876C9.7825 8.43678 9.84176 8.57986 9.94725 8.68534C10.0527 8.79083 10.1958 8.8501 10.345 8.8501H15.355L8.89 15.3151C8.83473 15.3666 8.79041 15.4287 8.75966 15.4977C8.72892 15.5667 8.71239 15.6412 8.71106 15.7167C8.70972 15.7922 8.72362 15.8673 8.75191 15.9373C8.7802 16.0073 8.82231 16.071 8.87572 16.1244C8.92913 16.1778 8.99276 16.2199 9.0628 16.2482C9.13284 16.2765 9.20786 16.2904 9.28339 16.289C9.35892 16.2877 9.4334 16.2712 9.5024 16.2404C9.5714 16.2097 9.6335 16.1654 9.685 16.1101L16.15 9.6451V14.6551C16.15 14.8043 16.2093 14.9474 16.3148 15.0528C16.4202 15.1583 16.5633 15.2176 16.7125 15.2176C16.8617 15.2176 17.0048 15.1583 17.1102 15.0528C17.2157 14.9474 17.275 14.8043 17.275 14.6551V8.2876C17.2737 8.21293 17.2584 8.13917 17.23 8.0701C17.1892 7.9742 17.1228 7.89134 17.0382 7.83051C16.9536 7.76969 16.8539 7.73323 16.75 7.7251H10.345Z" fill="#A6A9AE"/>
</svg>
