<svg width="118" height="115" viewBox="0 0 118 115" fill="none" xmlns="http://www.w3.org/2000/svg">
<path d="M59.3282 100.421C83.608 100.421 103.291 81.3274 103.291 57.7742C103.291 34.2211 83.608 15.1274 59.3282 15.1274C35.0484 15.1274 15.3657 34.2211 15.3657 57.7742C15.3657 81.3274 35.0484 100.421 59.3282 100.421Z" stroke="#6DB33F" stroke-width="1.46471" stroke-linecap="round" stroke-linejoin="round"/>
<path d="M59.3276 86.2056C62.3626 86.2056 64.8229 83.8189 64.8229 80.8748C64.8229 77.9306 62.3626 75.5439 59.3276 75.5439C56.2926 75.5439 53.8323 77.9306 53.8323 80.8748C53.8323 83.8189 56.2926 86.2056 59.3276 86.2056Z" fill="#6DB33F"/>
<path d="M59.3265 64.8824V61.3285C61.8626 61.3285 64.3416 60.599 66.4503 59.2322C68.5589 57.8654 70.2024 55.9228 71.1729 53.6499C72.1434 51.377 72.3973 48.876 71.9025 46.4632C71.4078 44.0503 70.1866 41.834 68.3933 40.0944C66.6001 38.3548 64.3154 37.1701 61.8281 36.6902C59.3408 36.2102 56.7626 36.4566 54.4196 37.398C52.0766 38.3395 50.0741 39.9338 48.6651 41.9793C47.2562 44.0248 46.5042 46.4297 46.5042 48.8898" stroke="#6DB33F" stroke-width="1.46471" stroke-linecap="round" stroke-linejoin="round"/>
</svg>
